<?xml version="1.0" standalone="no"?>
<!DOCTYPE svg PUBLIC "-//W3C//DTD SVG 20010904//EN"
 "http://www.w3.org/TR/2001/REC-SVG-20010904/DTD/svg10.dtd">
<svg version="1.0" xmlns="http://www.w3.org/2000/svg"
 width="512.000000pt" height="512.000000pt" viewBox="0 0 512.000000 512.000000"
 preserveAspectRatio="xMidYMid meet">

<g transform="translate(0.000000,512.000000) scale(0.100000,-0.100000)"
fill="#fff" stroke="none">
<path d="M505 5113 c-51 -7 -127 -34 -199 -71 -124 -64 -218 -178 -279 -339
l-22 -58 -3 -1752 c-3 -1954 -7 -1828 67 -1979 55 -110 145 -200 255 -254 145
-72 107 -70 1204 -70 540 0 982 3 982 8 0 4 -12 41 -26 82 -14 41 -36 125 -49
185 l-22 110 -934 5 c-1038 6 -973 1 -1037 74 -17 20 -35 49 -39 64 -10 35
-10 3439 0 3474 9 35 61 94 101 116 29 16 159 17 1834 20 1193 1 1817 -1 1841
-8 53 -14 101 -49 125 -90 21 -34 21 -49 26 -998 l5 -963 90 -30 c50 -16 136
-52 192 -79 56 -28 105 -50 108 -50 3 0 4 474 3 1053 -4 1166 0 1095 -71 1237
-47 94 -160 206 -257 254 -144 70 -18 66 -2040 64 -1004 0 -1838 -3 -1855 -5z"/>
<path d="M905 4116 c-39 -17 -79 -58 -100 -102 -14 -29 -16 -61 -13 -187 3
-142 5 -154 27 -188 14 -20 41 -47 60 -60 32 -22 45 -24 192 -27 132 -3 163
-1 191 13 91 47 118 109 118 275 0 165 -27 229 -117 274 -42 21 -311 23 -358
2z"/>
<path d="M1890 4104 c-46 -20 -68 -41 -93 -89 -29 -56 -37 -256 -13 -337 21
-73 73 -121 145 -137 72 -15 1779 -15 1851 0 57 12 111 53 137 103 22 41 31
255 13 323 -15 63 -53 111 -104 134 -39 18 -84 19 -971 18 -806 0 -935 -2
-965 -15z"/>
<path d="M930 3128 c-51 -14 -95 -52 -119 -101 -18 -38 -21 -61 -21 -183 0
-157 12 -199 69 -247 49 -41 92 -49 247 -45 134 3 143 4 182 31 23 15 52 46
64 70 21 38 23 55 23 192 0 122 -3 156 -17 181 -24 44 -81 91 -125 103 -47 13
-256 13 -303 -1z"/>
<path d="M1906 3125 c-44 -15 -90 -56 -114 -100 -14 -24 -17 -59 -17 -181 0
-150 0 -151 30 -199 20 -32 45 -56 74 -72 l44 -23 657 0 657 0 75 35 c153 70
343 118 528 133 l95 7 0 135 c-1 106 -4 142 -17 166 -24 44 -81 91 -125 103
-25 7 -341 11 -943 11 -742 -1 -912 -3 -944 -15z"/>
<path d="M3728 2305 c-235 -44 -443 -159 -614 -337 -158 -165 -256 -354 -298
-577 -20 -102 -20 -307 -2 -411 97 -541 573 -940 1122 -940 855 0 1407 903
1016 1664 -148 289 -401 492 -723 582 -80 22 -119 27 -259 30 -117 2 -188 -1
-242 -11z m412 -730 l0 -195 195 0 195 0 0 -200 0 -200 -195 0 -195 0 0 -195
0 -195 -200 0 -200 0 0 195 0 195 -195 0 -195 0 0 200 0 200 195 0 195 0 0
195 0 195 200 0 200 0 0 -195z"/>
<path d="M905 2134 c-47 -24 -83 -64 -101 -109 -12 -33 -15 -72 -12 -187 3
-141 4 -146 32 -186 17 -25 47 -51 75 -64 40 -20 61 -23 171 -23 157 0 192 7
241 52 52 47 69 106 69 242 0 121 -11 172 -47 220 -45 58 -88 71 -253 71 -112
0 -152 -4 -175 -16z"/>
<path d="M1884 2131 c-89 -40 -119 -123 -112 -305 5 -127 21 -172 78 -218 51
-40 112 -48 370 -48 l228 0 25 83 c49 154 131 319 223 445 l46 62 -409 0
c-377 0 -411 -2 -449 -19z"/>
</g>
</svg>
